<?xml version="1.0" standalone="no"?>
<!DOCTYPE svg PUBLIC "-//W3C//DTD SVG 1.1//EN" "http://www.w3.org/Graphics/SVG/1.1/DTD/svg11.dtd" >
<svg xmlns="http://www.w3.org/2000/svg">
<metadata></metadata>
<defs>
<font id="frankenweeniemovieposterRg" horiz-adv-x="1014" >
<font-face units-per-em="2048" ascent="1638" descent="-410" />
<missing-glyph horiz-adv-x="508" />
<glyph horiz-adv-x="2048" />
<glyph horiz-adv-x="2048" />
<glyph unicode="&#xd;" horiz-adv-x="508" />
<glyph unicode=" "  horiz-adv-x="508" />
<glyph unicode="&#x09;" horiz-adv-x="508" />
<glyph unicode="&#xa0;" horiz-adv-x="508" />
<glyph unicode="!" horiz-adv-x="615" d="M-15 -59q0 93 153 187q241 -23 241 -73q35 -92 35 -143l-63 -98q-49 -62 -99 -62l-107 10q-17 -9 -27 -9q-125 19 -124 143q0 30 -9 45zM-9 1282q18 32 19 71v36l-9 18q66 26 161 44q14 -1 116 -55l214 -1l54 36h27q0 -41 9 -54q-1 -115 -82 -348q-52 0 -109 -321 q9 0 9 -9q-44 -24 -91 -232l18 -90q-16 0 -54 -107q-135 3 -134 19q-12 62 -27 62l9 63l1 54q0 28 -53 179q18 86 28 205l-44 152l9 18q-38 162 -71 260z" />
<glyph unicode="&#x22;" horiz-adv-x="672" />
<glyph unicode="#" horiz-adv-x="1336" />
<glyph unicode="$" horiz-adv-x="834" d="M-5 895q13 48 13 65t-6 170q45 114 124 144q35 20 196 53l7 33v189l65 7h131q-6 -45 -19 -223q6 0 6 -6l33 6h33q144 0 144 -52q8 0 98 -98v-33q-52 -75 -72 -150q-16 0 -33 -14h-13q-25 177 -78 177q-87 39 -190 39q-95 -58 -112 -85q-13 -61 -13 -98v-33 q124 -144 275 -196q223 -85 223 -203v-26q-26 -321 -59 -321q-72 -63 -72 -98h-26q-163 -69 -164 -79q-7 -121 -7 -176h-6l-105 -7q0 7 -6 7q0 6 6 6q0 7 -6 20q0 41 13 157h-7q-73 0 -157 33h-26l-13 -7q0 14 -112 124q-30 53 -39 105q0 70 46 111q35 -6 59 -6v-46 q0 -124 255 -150q122 0 138 72q13 45 13 78v98q-96 141 -223 171l-262 137q-52 65 -52 105z" />
<glyph unicode="%" horiz-adv-x="1655" d="M7 1148q22 165 58 189q0 66 218 102q218 0 218 -102q65 -149 80 -269l-51 -225l-80 -123q-102 -95 -131 -95q-28 12 -145 22q-17 41 -80 58q-87 105 -87 443zM159 981q26 -167 73 -167q0 -16 65 -22q88 17 88 66q18 16 58 174q-32 254 -131 254h-22q-131 0 -131 -305z M305 16v7q562 920 660 1162q102 130 102 210h131q62 0 94 15q11 -1 37 -29q0 -11 -393 -559q0 -29 -152 -262q-231 -405 -349 -559h-14q-49 0 -116 15zM1074 502l37 131q-8 14 -8 21q49 146 102 146q82 36 167 36q218 0 218 -123q58 -141 58 -240q-31 -85 -44 -247 q-30 -129 -43 -138q-19 0 -80 -72l-15 7h-14q-40 0 -102 -7q-41 19 -123 36q0 15 -102 101q-38 0 -51 349zM1212 400q37 -120 37 -159q60 -62 123 -66q131 0 131 196q7 0 7 73v43q0 197 -109 197h-36q-131 -43 -131 -138q0 -69 -22 -146z" />
<glyph unicode="&#x26;" horiz-adv-x="1075" d="M6 1120q60 289 240 289q50 27 90 27q22 0 34 -7q37 7 62 7h13q378 -67 378 -288q0 -251 -254 -371q0 -7 -62 -41l268 -344l192 179q96 -79 96 -124q-11 0 -185 -164v-7l103 -144v-7q-63 -76 -89 -76q-16 0 -124 138q-119 -106 -165 -131q0 -9 -123 -34q0 -14 -35 -14h-20 q-121 34 -289 62q-109 105 -109 226q0 11 6 110q-6 38 -6 55q27 38 61 144q51 60 172 144q0 12 -233 248q-14 105 -21 123zM185 358q34 -185 185 -185h34q137 0 261 137q-89 83 -288 336h-7q-179 -145 -179 -247zM267 1065q0 -62 137 -219l186 130q27 57 27 110v7 q0 107 -158 151h-20q-152 0 -172 -124v-55z" />
<glyph unicode="'" horiz-adv-x="346" />
<glyph unicode="(" horiz-adv-x="410" d="M0 1367q26 98 102 142q80 61 324 61q8 0 21 -7q27 7 47 7q108 0 108 -41v-6q-18 -12 -176 -41q-88 -39 -88 -162q-27 -321 -27 -373q0 -26 21 -176v-61q0 -68 -21 -142q14 -226 14 -304q0 -33 -34 -264q104 -61 291 -61h14q6 0 6 -7l14 7q20 -4 20 -54q-7 -41 -20 -41 q-501 0 -501 142q0 27 -13 75q0 5 6 40l-27 183q14 74 14 129q0 296 -81 744v61q0 49 -14 149z" />
<glyph unicode=")" horiz-adv-x="438" d="M-191 -108q0 50 21 54l13 -7q0 7 7 7h14q189 0 294 61q-34 231 -34 264q0 78 13 304q-20 74 -20 142v61q20 150 20 176q0 52 -27 373q0 123 -89 162q-159 29 -178 41v6q0 41 110 41q20 0 48 -7q13 7 20 7q248 0 329 -61q76 -44 102 -142q-13 -100 -13 -149v-61 q-83 -448 -83 -744q0 -55 14 -129l-27 -183q7 -35 7 -40q-14 -48 -14 -75q0 -142 -506 -142q-14 0 -21 41z" />
<glyph unicode="*" horiz-adv-x="1024" />
<glyph unicode="+" />
<glyph unicode="," horiz-adv-x="248" d="M5 110q0 43 84 72h12q100 -7 100 -68q4 -11 12 -64q-10 -175 -100 -212h-4q-20 8 -20 28v4q64 41 64 112v16q-6 16 -28 16h-28q-92 0 -92 96z" />
<glyph unicode="-" horiz-adv-x="670" />
<glyph unicode="." horiz-adv-x="219" d="M19 85v4q0 44 60 84q116 0 116 -48q7 0 12 -44q-22 -59 -64 -76q-120 0 -120 40q-4 21 -4 40z" />
<glyph unicode="/" horiz-adv-x="569" d="M-16 -60q288 1063 315 1328q62 158 39 236l128 37q61 18 89 42q10 2 44 -18q3 -11 -224 -661q8 -28 -75 -300q-110 -464 -182 -648l-14 -5q-48 -13 -118 -19z" />
<glyph unicode="0" horiz-adv-x="1061" d="M-1 724q62 398 103 398q49 140 251 288l148 30q57 -20 266 -37q39 -46 110 -82q140 -176 140 -287q30 -169 30 -259q0 -159 -96 -487q-10 -7 -89 -155q-201 -140 -332 -140q-354 66 -354 140q-33 38 -147 362q-30 189 -30 229zM265 642q0 -220 118 -420q65 -52 133 -52 q101 0 140 81q96 112 96 303q29 120 29 221q-18 332 -199 406q-12 8 -37 8q-192 0 -273 -392q-7 -46 -7 -103v-52z" />
<glyph unicode="1" horiz-adv-x="559" d="M3 1170q0 67 59 89q35 0 177 125q79 40 140 52q52 -15 89 -15h44q17 0 22 -37q-14 -92 -14 -125q7 -92 7 -103q-34 -50 -59 -576q-7 0 -7 -30q7 -70 14 -81q-22 -86 -22 -258v-111l-7 -89h-67l-88 -7q-25 19 -44 221q-20 0 -45 842v74l-7 51l-185 -44q-7 14 -7 22z" />
<glyph unicode="2" horiz-adv-x="1040" d="M22 986q0 184 102 305q0 84 362 145q240 -15 341 -51q63 -30 94 -116q29 -123 80 -232q0 -198 -225 -377q-16 0 -65 -87q-238 -180 -428 -370v-7q44 14 189 14h275q76 0 232 8l44 -116q-25 -102 -102 -102h-43q0 22 -225 51q-22 7 -102 7h-29q-235 0 -384 -43 q-64 37 -72 65l-15 87q21 80 58 80q183 219 377 348q232 203 232 319v43q-43 261 -210 261q-152 0 -218 -130l-29 -123q-31 -29 -137 -29q-76 0 -102 50z" />
<glyph unicode="3" d="M0 1071q0 115 100 243q0 33 186 93l158 29q386 -20 386 -93q79 -124 100 -208q-43 -271 -93 -271q-46 -59 -121 -115q148 -56 200 -157q14 -46 36 -158q0 -158 -122 -300q-90 -108 -300 -108q-89 0 -172 -14q-159 25 -236 100q0 30 -65 93q-31 67 -36 115q21 64 179 78 h22q0 -189 222 -214q204 0 229 243v14q0 171 -129 236l-65 15q-16 0 -107 -15l-7 86v36h93q207 23 207 179q8 0 8 57q0 161 -151 229q-21 0 -50 7q-165 0 -236 -207v-72l-7 -14q-197 16 -229 93z" />
<glyph unicode="4" d="M1 515q0 12 14 35q0 36 -14 36q179 242 287 480q82 97 200 351q67 15 187 22q38 -7 64 -7l100 7q51 -7 86 -7v-7q0 -61 -14 -172q5 -108 14 -108q-28 -66 -28 -122v-7q0 -45 7 -107q-50 -281 -50 -330v-36l143 -28v-58q0 -57 -122 -57h-50q-18 -380 -64 -380 q-39 -7 -65 -7q-31 0 -57 265q-12 0 -29 136l-143 15l-165 -15q-13 0 -57 15l-79 -15q-47 7 -93 7h-43q0 8 -29 94zM187 565l7 -15l15 8h36q19 0 193 -15h143q13 0 22 36q-22 582 -22 681v7h-7q0 -51 -265 -451q-34 -75 -122 -230v-21z" />
<glyph unicode="5" d="M5 1248v22q0 159 51 159q38 7 43 7q82 -22 283 -29q329 29 420 29h43q18 0 29 -58q-21 -35 -21 -94v-29q-19 0 -58 -7q-37 14 -124 29q-25 -7 -28 -7q-217 14 -298 14q-48 0 -79 -29q7 -14 7 -22q0 -116 -14 -174q16 -158 21 -173q60 43 268 72q149 -14 232 -51 q53 -25 131 -101q26 0 72 -203l-14 -58q14 -29 14 -51q0 -157 -101 -333q-23 0 -116 -101q-127 -37 -283 -51q-362 62 -362 152l-80 102v14q0 16 7 29q-14 35 -14 87q49 51 101 51h44q72 0 87 -102q89 -130 210 -130q191 0 253 311q8 12 8 37q0 168 -138 231q-68 22 -123 22 h-44q-133 0 -173 -80l-66 8q-75 -8 -87 -8q-28 8 -50 8v7q0 46 7 94q-5 44 -15 44l8 36q-51 222 -51 326z" />
<glyph unicode="6" horiz-adv-x="1061" d="M0 511q7 91 7 96l-7 14q15 22 44 353q80 267 301 403q0 24 176 59q241 0 286 -66q55 -18 169 -191v-7q0 -38 -110 -74q-12 0 -103 110q-143 59 -190 59q-196 0 -338 -198q-44 -124 -44 -242v-140q161 191 264 191q72 30 132 30h22q103 0 272 -103q103 -125 132 -235 q29 -34 29 -96q-41 -271 -80 -271q0 -65 -250 -176q-65 -15 -176 -15h-15q-206 0 -264 88q-80 39 -191 198q-66 151 -66 213zM272 438q0 -100 110 -213q8 -29 117 -37h22q182 0 242 198q30 30 30 81v7q0 50 -74 162q-47 95 -176 95h-44q-74 0 -176 -110q-44 -69 -51 -176v-7 z" />
<glyph unicode="7" d="M6 1308q0 62 38 128l45 -8q327 -7 468 -7q102 0 287 15l38 -15q41 7 68 7q15 -24 15 -37q0 -32 -189 -423q-234 -483 -234 -619q-38 -83 -53 -302q-38 -38 -105 -38q-67 28 -68 45q0 77 15 182q-8 29 -8 60q0 88 76 234q0 124 294 710h-385q-123 0 -242 -31 q-60 26 -60 99z" />
<glyph unicode="8" d="M-10 403v57q0 85 58 151q5 64 194 180q-166 86 -166 158q-50 67 -50 122q0 171 93 252q0 74 367 115q367 -35 367 -129q79 -101 79 -216q0 -198 -252 -302v-7q113 0 266 -159q58 -117 58 -179q0 -165 -93 -302q-107 -123 -324 -123q-22 0 -130 -14q-258 40 -330 86 q-115 106 -115 151q0 43 -15 43l15 36q-22 68 -22 80zM227 446q0 -186 101 -245q53 -50 129 -50q106 0 223 79q72 170 72 230q-64 266 -266 266h-7q-122 0 -209 -122q-43 -121 -43 -158zM278 1035q0 -118 86 -165l93 -36q231 31 231 209v28q-28 245 -180 245h-22 q-208 0 -208 -209v-72z" />
<glyph unicode="9" horiz-adv-x="1075" d="M0 955q39 288 74 288q0 54 214 170q0 23 200 30h52q261 0 348 -155q107 -71 162 -318v-30q-7 -92 -7 -96q0 -8 7 -8l-7 -37v-7q-30 -473 -89 -473q-44 -131 -133 -178q-89 -118 -229 -118q0 -10 -59 -15q-304 15 -304 67q-77 0 -162 170v29q20 40 81 59q52 0 89 -74 q132 -73 244 -73q251 0 340 325q22 166 22 274v14h-7q-50 -124 -192 -207q-74 -13 -74 -22q-348 0 -459 119q-52 29 -89 184q-20 40 -22 82zM259 947q0 -87 126 -214q48 -15 66 -15h89q94 0 185 126q59 157 59 170h-7l7 15q0 7 -7 7q0 8 7 8q0 74 -74 140q-69 81 -155 81 q-130 0 -170 -66q-72 0 -126 -207v-45z" />
<glyph unicode=":" horiz-adv-x="212" d="M12 85v4q0 44 60 84q116 0 116 -48q7 0 12 -44q-22 -59 -64 -76q-120 0 -120 40q-4 21 -4 40zM19 495v4q0 44 60 84q116 0 116 -48q7 0 12 -44q-22 -59 -64 -76q-120 0 -120 40q-4 21 -4 40z" />
<glyph unicode=";" horiz-adv-x="233" d="M5 110q0 43 84 72h12q100 -7 100 -68q4 -11 12 -64q-10 -175 -100 -212h-4q-20 8 -20 28v4q64 41 64 112v16q-6 16 -28 16h-28q-92 0 -92 96zM19 495v4q0 44 60 84q116 0 116 -48q7 0 12 -44q-22 -59 -64 -76q-120 0 -120 40q-4 21 -4 40z" />
<glyph unicode="&#x3c;" />
<glyph unicode="=" />
<glyph unicode="&#x3e;" />
<glyph unicode="?" horiz-adv-x="1054" d="M13 871l8 99v16l-8 17q18 0 25 74q-17 33 -17 49q67 66 107 164q81 66 386 123h8q468 -29 468 -148q0 -37 57 -180v-49q0 -296 -205 -386q-353 -78 -353 -99q-25 -30 -25 -57v-279l-41 -8h-57q-12 0 -25 24v222q0 180 91 180q260 123 270 140q99 75 99 172 q-21 162 -99 263q-86 57 -172 57q-140 0 -254 -123q-50 -53 -50 -221v-74q0 -25 -90 -25h-8q-58 0 -115 49zM218 -89q0 97 123 164h41q172 0 205 -123q0 -29 -82 -156v-8q-8 0 -24 8q-70 -16 -82 -16q-181 0 -181 123v8z" />
<glyph unicode="@" horiz-adv-x="1280" d="M0 594v38q0 340 32 434q-13 26 -13 38q29 52 134 185q0 96 441 141q0 6 12 6q464 0 536 -134q122 -105 122 -574q-43 -320 -115 -320q-101 -76 -198 -76h-6q-26 13 -26 19q-52 -19 -96 -19q-38 0 -64 64h-12q0 -40 -51 -45h-45q-6 0 -6 6q-47 -8 -83 -25q-123 0 -147 45 l-38 95l6 32q-26 78 -26 102q0 15 20 77q-7 123 -7 159l7 32q-7 25 -7 51v7q45 153 115 153q98 13 109 19q165 -27 165 -70h13q0 50 26 57h25q38 0 64 -38q-6 -339 -19 -396q13 -111 13 -153q-7 -33 -7 -38h45q148 0 204 115q19 97 19 198v108q0 331 -178 396h-45 q-30 0 -262 32q-76 -7 -102 -19q-34 6 -57 6q-217 -30 -217 -70q-59 0 -121 -198q-26 -155 -26 -217v-102q7 -441 57 -441q49 -84 243 -140l147 -19q61 6 115 19l38 -19q44 6 70 6h7q6 0 6 -6l13 6q249 0 249 64q22 38 32 38q82 0 82 -57q0 -103 -191 -147h-115l-89 -19 q-10 0 -77 19q-20 0 -89 -13q-44 13 -77 13h-83q-132 0 -210 64q-26 0 -115 57l-13 -6q-28 0 -45 64q-44 13 -44 25v20q0 44 -26 153l7 44q-26 75 -26 154zM485 702q26 -164 26 -198q84 -51 134 -51h25q102 0 102 160v108q0 57 7 128q-10 134 -64 134l-32 -7q-21 13 -38 13 q-147 -15 -147 -95q0 -106 -13 -179v-13z" />
<glyph unicode="A" horiz-adv-x="1018" d="M0 58v21q79 404 79 426q-7 62 -7 94q43 94 87 411q29 71 57 267q-14 61 -14 116l585 43h28q65 -412 65 -556q0 -17 -7 -108q29 -79 29 -108v-7q0 -8 -7 -8q32 0 50 -375q44 -167 44 -245h-8q-64 -15 -86 -15q0 15 -15 15q-23 -15 -43 -15q-115 0 -115 101q-13 86 -29 260 q-17 94 -51 94q-50 14 -86 14h-94q-50 0 -181 -21q-45 -455 -57 -455q-13 -7 -29 -7h-72q-123 0 -123 58zM296 613h267q40 0 108 15q-29 279 -86 527q-5 0 -22 43q-24 -15 -36 -15q0 18 -29 22q-7 0 -7 -7l-36 7h-15q-72 0 -72 -22q-36 -173 -50 -418q-8 0 -22 -152z" />
<glyph unicode="B" horiz-adv-x="1018" d="M23 71q29 153 36 386q7 0 7 14q-14 79 -14 108q21 64 21 85v50q-36 574 -36 693h193q58 0 415 29q185 -29 185 -93q115 -225 115 -271q0 -148 -258 -300v-8q229 -67 229 -128q86 -176 86 -307v-8q-59 -38 -122 -207q-100 0 -142 -86q0 -3 -29 -21q-39 21 -64 21 q-63 0 -158 -7q-200 7 -257 15q-23 -15 -43 -15q-97 50 -157 50h-7zM295 171h7q344 0 400 122q22 0 43 157q0 189 -172 250q-43 22 -128 22q-81 0 -129 -22q-14 -449 -21 -529zM309 1243l21 -143q-7 -79 -7 -143v-21q0 -79 14 -136q322 0 322 222v28q-22 179 -86 179 q-45 14 -93 21q-49 -7 -78 -7h-93z" />
<glyph unicode="C" horiz-adv-x="1054" d="M8 663q25 0 73 416q46 153 87 153q123 65 154 138q48 39 189 66q25 -15 102 -22q30 0 182 15q46 0 102 -59q103 0 103 -109q29 -70 43 -153q-25 -109 -80 -109q-2 -12 -87 -44l-8 14v102q0 106 -160 226l-44 8q-146 -29 -146 -80q-131 -123 -131 -277q-73 -193 -73 -336 q45 -379 161 -379q0 -15 73 -15h14q90 0 190 73q153 65 153 132q14 43 51 43h22q9 0 58 -138q-7 -65 -15 -80q8 -13 8 -30q0 -18 -88 -102q0 -48 -116 -65q-35 -15 -161 -44q-315 20 -350 66q-80 0 -189 277q-117 242 -117 313z" />
<glyph unicode="D" horiz-adv-x="1209" d="M-3 1384q68 28 515 45q0 7 37 7q271 -15 354 -59q91 -49 228 -398q13 -8 66 -198q-29 -47 -81 -229q-161 -331 -250 -331q-8 0 -140 -140q-96 -81 -169 -81q-48 15 -67 15q-70 0 -191 -15q-30 8 -74 59l-29 -7q-66 0 -66 228q-41 906 -81 906q-23 65 -52 198zM328 574 q15 -117 15 -324v-44q56 -81 111 -81h14q116 0 170 133q243 346 243 537v37q-34 273 -81 273q0 39 -103 66h-52q-258 0 -258 -192v-81q-45 -28 -59 -324z" />
<glyph unicode="E" horiz-adv-x="1054" d="M0 1319q17 117 37 117h161q44 0 300 -44h15l322 22q42 0 191 -37q-33 -79 -59 -175l-37 7h-139q-115 -51 -183 -51q-110 -6 -110 -15q-29 -127 -36 -205q0 -78 95 -169q87 15 242 15h131l-14 -73q7 -15 7 -22q-34 -22 -110 -37q-88 7 -132 7l-36 -7v7l-15 -7h-66 q-154 -106 -154 -286v-51q0 -108 66 -139q0 -11 22 -22h22q306 0 418 36l102 -21q-37 -45 -73 -103q-183 0 -645 -66q-23 2 -73 81q-95 0 -95 175q7 178 15 213q0 112 -52 256q73 76 73 191q-21 260 -139 278q-42 0 -51 125z" />
<glyph unicode="F" horiz-adv-x="976" d="M0 1189q29 43 29 87q0 46 -29 138q69 22 189 22q23 0 516 -15q168 8 175 8q72 0 72 -29q-7 -182 -29 -182h-29l-276 -29h-66l-36 7q-94 -116 -94 -203q0 -160 80 -160q49 -22 210 -37q144 15 189 15l8 -15q-15 -68 -15 -109v-7l-182 -22q-46 15 -58 15q-110 0 -211 -58 q-41 -68 -65 -211q-15 0 -15 -22q0 -13 15 -44q-7 -122 -7 -189v-7q0 -30 7 -80q0 -58 -138 -58q-23 2 -44 51q-58 19 -58 65v73q-14 319 -14 349v51q0 16 7 29q-22 67 -58 123v8q46 0 51 225q7 0 7 22q-16 71 -131 189z" />
<glyph unicode="G" horiz-adv-x="1110" d="M-1 642v173q0 36 57 157q86 272 86 294q88 165 230 165v-7l14 7h158q34 0 72 -36l36 8h57q78 0 165 -187q7 -28 7 -57q-54 -65 -64 -65q0 117 -130 158l-35 7q-8 -21 -43 -21q0 10 -29 21q-1 -10 -36 -29l-72 8q-107 -47 -107 -115q-36 -340 -72 -445q22 -81 57 -315 q47 -107 151 -230l43 -7h29q93 0 215 172q0 27 7 179q-28 102 -100 180h-101l-14 -7v71q0 22 72 22q136 0 229 -15q97 8 201 29q7 -14 7 -21q-79 -188 -79 -244v-15q0 -34 7 -71q-26 -215 -50 -215q-47 -17 -122 -101q-74 -38 -129 -79q-46 0 -100 -14q-96 29 -137 29h-93 q-202 184 -258 193q-53 45 -115 287q-14 57 -14 136z" />
<glyph unicode="H" horiz-adv-x="1061" d="M3 1300q10 100 36 100q41 0 150 29q123 -17 123 -29q0 -7 7 -7q-7 -71 -7 -108v-122q-43 -102 -43 -344h7q62 0 122 -36q115 7 136 7q133 -7 166 -7q14 23 14 42q0 70 7 317q-16 187 -29 265v8q44 14 58 14q64 -7 79 -7q24 0 122 7q83 -7 94 -14q-31 -104 -36 -151 q14 -116 14 -136q-29 -53 -29 -115v-22q0 -26 7 -65q-20 -41 -28 -186q7 -27 7 -65q-49 -215 -80 -244q15 -24 15 -44v-49l-36 -295l-36 -36h-79q-18 0 -28 50h7q-15 23 -22 79q7 102 7 172q-21 184 -21 245v115q0 21 -165 21q-7 0 -58 -7q0 6 -21 22q-209 -20 -209 -65 q8 -22 15 -22q-15 -45 -36 -50l21 -79q-43 -152 -43 -244v-51q-50 -164 -64 -164h-15q-66 0 -79 194q-13 0 -14 71v44q0 30 14 57q-21 77 -28 179q7 131 7 166q-15 127 -15 150q8 89 8 94q-15 0 -22 316z" />
<glyph unicode="I" horiz-adv-x="424" d="M0 1182q7 126 36 218q189 20 189 36q86 -29 138 -29h36q14 -39 14 -44q-20 -124 -36 -377q-43 0 -65 -848q0 -138 -116 -138q-102 0 -102 87q-14 68 -14 109q0 46 7 94q-36 256 -80 885q-7 0 -7 7z" />
<glyph unicode="J" horiz-adv-x="912" d="M0 460q123 63 170 63q78 0 78 -35q11 -290 49 -290q72 -57 149 -57q86 0 106 71q36 57 42 57l-7 49q21 60 21 64q-21 97 -21 198v78q-28 33 -28 113q14 49 14 85v7q0 66 -57 368v163q139 14 213 35q49 -20 155 -35q0 -8 7 -22q-7 -72 -7 -113v-42l-7 -14h7l-7 -15v-14 q0 -7 7 -7q-7 -13 -7 -21q-21 -236 -21 -262q0 -172 14 -375q-21 -82 -28 -212q7 -68 14 -78q-99 -60 -99 -113q-148 -106 -163 -106q-83 20 -375 50q-52 56 -127 56q-78 35 -78 156q-14 123 -14 198z" />
<glyph unicode="K" horiz-adv-x="1167" d="M11 1207q29 76 57 194q69 0 194 35q87 0 87 -71v-51q0 -24 -44 -222q-7 -31 -7 -108v-280l-7 -14h7q126 0 309 351q24 14 94 216q69 129 86 129q40 0 100 15q144 -32 144 -51q-142 -90 -194 -222q0 -90 -136 -209q-123 -180 -123 -251q166 -26 166 -79q68 -431 215 -431 q78 0 158 79l7 14q13 -7 29 -7v-14q-83 -115 -165 -144q-13 0 -72 -86q-294 0 -294 158l-94 381q-63 64 -122 64h-57q-65 0 -65 -64q-65 -186 -65 -331q-32 -65 -57 -194l-15 -7q-71 0 -71 173q-8 0 -8 64v43q0 22 22 86q-22 112 -22 151v22q0 117 8 215q0 144 -65 446z" />
<glyph unicode="L" horiz-adv-x="827" d="M-3 1385q0 44 131 44q0 7 36 7q254 -14 254 -51q15 -60 15 -116q0 -52 -44 -232q0 -5 -14 -153q0 -36 14 -36q-35 -61 -65 -211l14 -116q-21 -42 -87 -320q115 -50 204 -50l196 29q12 0 80 -29q49 21 79 21q0 -7 -7 -7q0 -7 7 -7q-14 -153 -72 -153q-73 15 -87 29l-73 -7 h-22q-358 0 -443 -29q-51 50 -51 80v22q0 128 -14 414q7 115 7 138q-14 55 -22 123q29 201 29 262v29q0 106 -58 181q0 7 8 7q-15 101 -15 131z" />
<glyph unicode="M" horiz-adv-x="1358" d="M22 47v14q0 42 62 406l27 241q-48 449 -48 598l-27 131h7q145 -35 433 -35q3 -202 117 -522q14 -31 75 -234h7q56 189 214 557q66 234 82 234h34q317 -52 317 -97q0 -7 7 -20q-21 -68 -21 -90v-110q0 -254 21 -357q-21 -352 -21 -661v-55l-27 -6q-23 13 -42 13h-13 q-41 0 -69 -27q-48 0 -48 144q-35 246 -69 805l-14 7q-60 0 -165 -262q-40 -85 -83 -275q-75 -94 -75 -275q-10 -5 -28 -103q-65 -21 -75 -21q-35 324 -69 372q-30 172 -89 275q-54 215 -104 247h-27q-18 -316 -35 -316q-9 0 -20 -21v-27q0 -53 -55 -371q0 -6 -76 -193h-14 q-31 0 -89 34z" />
<glyph unicode="N" horiz-adv-x="1047" d="M12 1130l7 73q0 8 -7 22q7 39 7 65v8l-7 51q68 19 218 87h37q138 -29 145 -44q64 -305 131 -422q124 -270 255 -466v8q15 285 15 393q0 51 -8 487q91 -14 124 -14q65 7 80 7q21 -36 44 -36q-66 -228 -66 -459q0 -65 -36 -437v-116q0 -40 7 -102q-7 -18 -43 -211h-15 q-25 18 -109 51q-44 234 -117 327q-205 358 -378 590h-7q12 -85 21 -298q-11 -677 -72 -677l-8 -15q-56 29 -80 36l-43 -7h-8l-58 845l7 36q-7 24 -36 218z" />
<glyph unicode="O" horiz-adv-x="1131" d="M13 969q0 49 15 117l-15 36q76 101 146 212q78 53 365 102q313 -19 336 -58q79 0 204 -365q27 0 51 -256q-34 -83 -65 -248q0 -34 -102 -205q0 -36 -190 -189q-83 -103 -205 -103v-7q-29 22 -241 37q-89 52 -204 240q-33 42 -66 168q0 42 15 88q-29 95 -44 431zM283 633 q45 -263 95 -329q0 -90 139 -116q119 0 168 116q109 174 109 460q0 165 -124 387q-34 32 -109 44q-148 0 -212 -175q-35 0 -66 -387z" />
<glyph unicode="P" horiz-adv-x="969" d="M17 1338v14q100 35 259 70q79 -14 119 -14q70 0 351 28q116 0 147 -112q63 -163 63 -315v-28q0 -254 -91 -316q-136 -147 -148 -147h-14q-44 0 -105 7q-336 -36 -336 -84q-26 0 -56 -301q-35 -120 -56 -126q-6 0 -98 35l-21 287l14 561q-7 168 -7 378q0 32 -21 63z M297 637h7q364 83 364 169q34 0 49 196l-7 112q-128 49 -161 49q-13 0 -56 -14q-25 14 -56 14h-42q-91 -19 -91 -154v-7q0 -69 14 -203q-21 -128 -21 -162z" />
<glyph unicode="Q" horiz-adv-x="1089" d="M15 552v8q0 304 44 534l-7 52q110 190 117 190q88 51 337 95h7q299 -17 330 -58q72 0 139 -235q7 -1 73 -168l-7 -44l22 -205q-22 -54 -59 -286q-67 -114 -117 -154q51 -67 51 -124q41 0 59 -125q88 -146 161 -146h22q37 0 95 87q11 0 66 44h8q51 -26 51 -102 q-13 -3 -95 -125q-104 -51 -169 -51h-95q-85 0 -176 161q-86 170 -124 205q-78 -88 -227 -88l-220 30q-33 0 -81 58q-61 0 -161 249q0 89 -44 198zM279 669q14 -154 51 -278h15q73 132 146 132q0 15 30 15q132 -37 205 -103q88 170 88 271v51q0 98 -103 345q-61 88 -161 88 q-115 0 -139 -59q-42 -72 -74 -256q-58 -93 -58 -206zM367 274q34 -139 139 -139q124 36 124 95q30 29 30 73q-87 88 -125 88h-22q-77 0 -146 -117z" />
<glyph unicode="R" horiz-adv-x="1238" d="M11 1195q63 196 73 197h36q27 0 182 29h8q230 -22 255 -22q91 0 160 37q262 -12 262 -51q58 -365 58 -466q-81 -133 -204 -263q-96 -58 -109 -109q44 -132 73 -328q0 -53 95 -58h58q112 0 204 153h7q39 0 51 -29v-7q-153 -241 -189 -241q-136 -21 -233 -21 q-88 0 -212 400q-57 58 -138 58h-66q-51 0 -51 -80q-28 0 -65 -262q-19 -41 -37 -124l-14 -7h-36q-46 21 -73 269v30l7 43q-22 105 -22 292v7q0 38 7 124q-39 0 -58 80l22 109zM390 984q29 -162 29 -226v-72h124q218 47 218 218q15 122 51 211q-108 80 -167 80l-117 -7 q-39 7 -65 7q-65 -115 -73 -211z" />
<glyph unicode="S" horiz-adv-x="933" d="M-1 931q14 85 14 108q0 44 -14 152q33 110 130 173q139 65 483 65q0 7 73 7q88 0 137 -94q86 -54 86 -108q-62 -113 -86 -181q-24 -14 -44 -14q-33 188 -72 188q-75 57 -216 57q-145 -64 -145 -158v-73q0 -98 354 -259q188 -90 188 -202v-138q0 -28 -44 -194 q-96 -222 -490 -253q-325 79 -325 296q14 115 58 115q57 0 57 -43q0 -160 282 -195q166 0 166 181v79q-49 122 -181 195q-42 0 -353 180q-53 53 -58 116z" />
<glyph unicode="T" horiz-adv-x="990" d="M0 1326v58l7 37h45q199 0 412 -14l397 29v-7l15 7h103v-81q0 -66 -15 -125l-155 15q-110 -15 -184 -15h-44v-59l-29 -338v-206q-15 -550 -15 -611v-15q0 -11 -22 -22q-49 47 -118 59q-13 -7 -29 -7q-13 99 -30 404q8 64 8 111q0 14 -15 88q0 35 7 169q-14 319 -14 412 q-81 15 -250 15h-15q-29 -22 -44 -22q-15 32 -15 118z" />
<glyph unicode="U" horiz-adv-x="1110" d="M15 552l22 111q-15 92 -15 148q0 32 23 119q0 40 -8 140q8 168 8 252q-8 66 -8 81l37 23l45 -8l37 8q122 -30 148 -30q19 0 74 15q15 -34 15 -67q-37 -201 -37 -252q0 -42 7 -118q-37 -88 -37 -178q0 -548 96 -548q25 -14 104 -29q120 0 215 177q0 43 66 200 q-7 105 -7 178v30q0 121 37 385h7q-15 80 -15 170q0 74 141 74h104q22 0 22 -118q-37 -411 -74 -526q-13 -54 -22 -193l15 -311l-15 -177l-67 -15q-89 45 -89 74q-31 0 -200 -141q-66 -22 -88 -22h-15q-35 0 -200 44q-63 -7 -104 -7q-200 82 -200 378z" />
<glyph unicode="V" horiz-adv-x="1082" d="M0 1437q122 -30 199 -30h29q62 8 103 8q52 -548 118 -899q32 -234 67 -265h14q13 0 45 199q14 0 14 15v36q0 34 103 383q30 369 67 369q11 29 22 29l-8 30q12 99 30 103l-8 15v7q273 -7 273 -30q-29 -58 -44 -279q-44 -97 -66 -266q-37 -73 -192 -545 q-129 -277 -133 -302q-86 -7 -125 -7h-37q-97 0 -125 96q-70 163 -118 375q-51 107 -51 162l7 67q-144 302 -169 641z" />
<glyph unicode="W" horiz-adv-x="1315" d="M8 1368q0 24 165 45q55 -55 83 -346q60 -333 83 -623h7q158 346 248 729q15 101 15 127h8q53 0 82 15l75 -293q91 -296 196 -556h7q19 0 30 226q45 325 60 593q11 0 30 151q175 -35 218 -61q0 -69 -52 -390q0 -89 -53 -323q-12 0 -37 -624q-61 -3 -61 -15q-33 15 -97 15 h-8l-90 -7l-128 405l-105 233h-15q-38 -34 -135 -293q-34 -48 -98 -360q-14 -8 -22 -8q-241 32 -241 75q-15 60 -15 98q0 37 15 37q-75 466 -150 864q-15 134 -15 286z" />
<glyph unicode="X" horiz-adv-x="1124" d="M5 1417q73 -8 110 -8h36q22 0 88 22q28 -20 81 -139q18 -19 117 -241q27 -42 80 -169h8l197 330q131 130 154 205h66q164 -8 168 -37v-15q0 -95 -117 -270q-69 -40 -132 -169q-124 -101 -183 -234q54 -173 176 -329q12 -58 132 -212q51 -95 51 -117q-15 0 -59 -37 q-66 0 -249 322q-55 43 -190 227q-150 -186 -358 -498q-35 -44 -88 -44q-22 27 -22 52q113 223 168 351q22 0 95 175l81 132q-63 129 -286 388l-109 205q0 48 -15 110z" />
<glyph unicode="Y" horiz-adv-x="990" d="M0 1322v62l35 -7q33 0 200 42q35 -32 35 -48q-14 -70 -14 -90q42 -180 173 -485q35 -35 42 -35h20q95 94 125 229q14 113 49 187q0 7 -7 7q0 63 62 221q3 28 21 28h7q40 0 110 7q118 -62 118 -69v-97q-80 -63 -104 -166l-242 -457q-61 -76 -69 -76q12 -63 20 -63 q-27 -138 -27 -263v-124q0 -90 -28 -90q-58 0 -90 -35q-40 0 -76 305q7 14 14 76q-14 117 -14 200q-105 110 -166 305q-83 119 -83 145q7 12 7 28q-118 105 -118 263z" />
<glyph unicode="Z" horiz-adv-x="912" d="M0 1247q22 36 22 58v73q293 7 465 36q128 0 276 29q14 -7 22 -7l14 7q72 -15 109 -58v-22q0 -26 -7 -65q7 -13 7 -29q-29 -56 -36 -117q-94 -107 -94 -138v-29q-36 0 -80 -131q-170 -156 -218 -269q-137 -170 -291 -436v-7q392 51 458 51q89 36 189 36q48 0 58 -101 q-19 -102 -44 -102h-14q-7 0 -7 7q-26 -14 -139 -22q-41 22 -87 22q-129 -14 -218 -14q-15 0 -102 14q-128 -14 -159 -29q-102 32 -102 65l7 37v7l-7 51q179 268 479 821q57 53 124 233q-189 -22 -218 -29v7l-15 -7h-72q-7 0 -7 7q-41 -22 -59 -22l-29 7q-13 0 -94 -21 q-22 0 -51 14q-36 -22 -51 -22q-29 45 -29 95z" />
<glyph unicode="[" horiz-adv-x="758" />
<glyph unicode="\" horiz-adv-x="569" />
<glyph unicode="]" horiz-adv-x="758" />
<glyph unicode="^" />
<glyph unicode="_" horiz-adv-x="1024" />
<glyph unicode="`" horiz-adv-x="1024" />
<glyph unicode="a" horiz-adv-x="1018" d="M0 58v21q79 404 79 426q-7 62 -7 94q43 94 87 411q29 71 57 267q-14 61 -14 116l585 43h28q65 -412 65 -556q0 -17 -7 -108q29 -79 29 -108v-7q0 -8 -7 -8q32 0 50 -375q44 -167 44 -245h-8q-64 -15 -86 -15q0 15 -15 15q-23 -15 -43 -15q-115 0 -115 101q-13 86 -29 260 q-17 94 -51 94q-50 14 -86 14h-94q-50 0 -181 -21q-45 -455 -57 -455q-13 -7 -29 -7h-72q-123 0 -123 58zM296 613h267q40 0 108 15q-29 279 -86 527q-5 0 -22 43q-24 -15 -36 -15q0 18 -29 22q-7 0 -7 -7l-36 7h-15q-72 0 -72 -22q-36 -173 -50 -418q-8 0 -22 -152z" />
<glyph unicode="b" horiz-adv-x="1018" d="M23 71q29 153 36 386q7 0 7 14q-14 79 -14 108q21 64 21 85v50q-36 574 -36 693h193q58 0 415 29q185 -29 185 -93q115 -225 115 -271q0 -148 -258 -300v-8q229 -67 229 -128q86 -176 86 -307v-8q-59 -38 -122 -207q-100 0 -142 -86q0 -3 -29 -21q-39 21 -64 21 q-63 0 -158 -7q-200 7 -257 15q-23 -15 -43 -15q-97 50 -157 50h-7zM295 171h7q344 0 400 122q22 0 43 157q0 189 -172 250q-43 22 -128 22q-81 0 -129 -22q-14 -449 -21 -529zM309 1243l21 -143q-7 -79 -7 -143v-21q0 -79 14 -136q322 0 322 222v28q-22 179 -86 179 q-45 14 -93 21q-49 -7 -78 -7h-93z" />
<glyph unicode="c" horiz-adv-x="1054" d="M8 663q25 0 73 416q46 153 87 153q123 65 154 138q48 39 189 66q25 -15 102 -22q30 0 182 15q46 0 102 -59q103 0 103 -109q29 -70 43 -153q-25 -109 -80 -109q-2 -12 -87 -44l-8 14v102q0 106 -160 226l-44 8q-146 -29 -146 -80q-131 -123 -131 -277q-73 -193 -73 -336 q45 -379 161 -379q0 -15 73 -15h14q90 0 190 73q153 65 153 132q14 43 51 43h22q9 0 58 -138q-7 -65 -15 -80q8 -13 8 -30q0 -18 -88 -102q0 -48 -116 -65q-35 -15 -161 -44q-315 20 -350 66q-80 0 -189 277q-117 242 -117 313z" />
<glyph unicode="d" horiz-adv-x="1209" d="M-3 1384q68 28 515 45q0 7 37 7q271 -15 354 -59q91 -49 228 -398q13 -8 66 -198q-29 -47 -81 -229q-161 -331 -250 -331q-8 0 -140 -140q-96 -81 -169 -81q-48 15 -67 15q-70 0 -191 -15q-30 8 -74 59l-29 -7q-66 0 -66 228q-41 906 -81 906q-23 65 -52 198zM328 574 q15 -117 15 -324v-44q56 -81 111 -81h14q116 0 170 133q243 346 243 537v37q-34 273 -81 273q0 39 -103 66h-52q-258 0 -258 -192v-81q-45 -28 -59 -324z" />
<glyph unicode="e" horiz-adv-x="1054" d="M0 1319q17 117 37 117h161q44 0 300 -44h15l322 22q42 0 191 -37q-33 -79 -59 -175l-37 7h-139q-115 -51 -183 -51q-110 -6 -110 -15q-29 -127 -36 -205q0 -78 95 -169q87 15 242 15h131l-14 -73q7 -15 7 -22q-34 -22 -110 -37q-88 7 -132 7l-36 -7v7l-15 -7h-66 q-154 -106 -154 -286v-51q0 -108 66 -139q0 -11 22 -22h22q306 0 418 36l102 -21q-37 -45 -73 -103q-183 0 -645 -66q-23 2 -73 81q-95 0 -95 175q7 178 15 213q0 112 -52 256q73 76 73 191q-21 260 -139 278q-42 0 -51 125z" />
<glyph unicode="f" horiz-adv-x="976" d="M0 1189q29 43 29 87q0 46 -29 138q69 22 189 22q23 0 516 -15q168 8 175 8q72 0 72 -29q-7 -182 -29 -182h-29l-276 -29h-66l-36 7q-94 -116 -94 -203q0 -160 80 -160q49 -22 210 -37q144 15 189 15l8 -15q-15 -68 -15 -109v-7l-182 -22q-46 15 -58 15q-110 0 -211 -58 q-41 -68 -65 -211q-15 0 -15 -22q0 -13 15 -44q-7 -122 -7 -189v-7q0 -30 7 -80q0 -58 -138 -58q-23 2 -44 51q-58 19 -58 65v73q-14 319 -14 349v51q0 16 7 29q-22 67 -58 123v8q46 0 51 225q7 0 7 22q-16 71 -131 189z" />
<glyph unicode="g" horiz-adv-x="1110" d="M-1 642v173q0 36 57 157q86 272 86 294q88 165 230 165v-7l14 7h158q34 0 72 -36l36 8h57q78 0 165 -187q7 -28 7 -57q-54 -65 -64 -65q0 117 -130 158l-35 7q-8 -21 -43 -21q0 10 -29 21q-1 -10 -36 -29l-72 8q-107 -47 -107 -115q-36 -340 -72 -445q22 -81 57 -315 q47 -107 151 -230l43 -7h29q93 0 215 172q0 27 7 179q-28 102 -100 180h-101l-14 -7v71q0 22 72 22q136 0 229 -15q97 8 201 29q7 -14 7 -21q-79 -188 -79 -244v-15q0 -34 7 -71q-26 -215 -50 -215q-47 -17 -122 -101q-74 -38 -129 -79q-46 0 -100 -14q-96 29 -137 29h-93 q-202 184 -258 193q-53 45 -115 287q-14 57 -14 136z" />
<glyph unicode="h" horiz-adv-x="1061" d="M3 1300q10 100 36 100q41 0 150 29q123 -17 123 -29q0 -7 7 -7q-7 -71 -7 -108v-122q-43 -102 -43 -344h7q62 0 122 -36q115 7 136 7q133 -7 166 -7q14 23 14 42q0 70 7 317q-16 187 -29 265v8q44 14 58 14q64 -7 79 -7q24 0 122 7q83 -7 94 -14q-31 -104 -36 -151 q14 -116 14 -136q-29 -53 -29 -115v-22q0 -26 7 -65q-20 -41 -28 -186q7 -27 7 -65q-49 -215 -80 -244q15 -24 15 -44v-49l-36 -295l-36 -36h-79q-18 0 -28 50h7q-15 23 -22 79q7 102 7 172q-21 184 -21 245v115q0 21 -165 21q-7 0 -58 -7q0 6 -21 22q-209 -20 -209 -65 q8 -22 15 -22q-15 -45 -36 -50l21 -79q-43 -152 -43 -244v-51q-50 -164 -64 -164h-15q-66 0 -79 194q-13 0 -14 71v44q0 30 14 57q-21 77 -28 179q7 131 7 166q-15 127 -15 150q8 89 8 94q-15 0 -22 316z" />
<glyph unicode="i" horiz-adv-x="424" d="M0 1182q7 126 36 218q189 20 189 36q86 -29 138 -29h36q14 -39 14 -44q-20 -124 -36 -377q-43 0 -65 -848q0 -138 -116 -138q-102 0 -102 87q-14 68 -14 109q0 46 7 94q-36 256 -80 885q-7 0 -7 7z" />
<glyph unicode="j" horiz-adv-x="912" d="M0 460q123 63 170 63q78 0 78 -35q11 -290 49 -290q72 -57 149 -57q86 0 106 71q36 57 42 57l-7 49q21 60 21 64q-21 97 -21 198v78q-28 33 -28 113q14 49 14 85v7q0 66 -57 368v163q139 14 213 35q49 -20 155 -35q0 -8 7 -22q-7 -72 -7 -113v-42l-7 -14h7l-7 -15v-14 q0 -7 7 -7q-7 -13 -7 -21q-21 -236 -21 -262q0 -172 14 -375q-21 -82 -28 -212q7 -68 14 -78q-99 -60 -99 -113q-148 -106 -163 -106q-83 20 -375 50q-52 56 -127 56q-78 35 -78 156q-14 123 -14 198z" />
<glyph unicode="k" horiz-adv-x="1167" d="M11 1207q29 76 57 194q69 0 194 35q87 0 87 -71v-51q0 -24 -44 -222q-7 -31 -7 -108v-280l-7 -14h7q126 0 309 351q24 14 94 216q69 129 86 129q40 0 100 15q144 -32 144 -51q-142 -90 -194 -222q0 -90 -136 -209q-123 -180 -123 -251q166 -26 166 -79q68 -431 215 -431 q78 0 158 79l7 14q13 -7 29 -7v-14q-83 -115 -165 -144q-13 0 -72 -86q-294 0 -294 158l-94 381q-63 64 -122 64h-57q-65 0 -65 -64q-65 -186 -65 -331q-32 -65 -57 -194l-15 -7q-71 0 -71 173q-8 0 -8 64v43q0 22 22 86q-22 112 -22 151v22q0 117 8 215q0 144 -65 446z" />
<glyph unicode="l" horiz-adv-x="827" d="M-3 1385q0 44 131 44q0 7 36 7q254 -14 254 -51q15 -60 15 -116q0 -52 -44 -232q0 -5 -14 -153q0 -36 14 -36q-35 -61 -65 -211l14 -116q-21 -42 -87 -320q115 -50 204 -50l196 29q12 0 80 -29q49 21 79 21q0 -7 -7 -7q0 -7 7 -7q-14 -153 -72 -153q-73 15 -87 29l-73 -7 h-22q-358 0 -443 -29q-51 50 -51 80v22q0 128 -14 414q7 115 7 138q-14 55 -22 123q29 201 29 262v29q0 106 -58 181q0 7 8 7q-15 101 -15 131z" />
<glyph unicode="m" horiz-adv-x="1358" d="M22 47v14q0 42 62 406l27 241q-48 449 -48 598l-27 131h7q145 -35 433 -35q3 -202 117 -522q14 -31 75 -234h7q56 189 214 557q66 234 82 234h34q317 -52 317 -97q0 -7 7 -20q-21 -68 -21 -90v-110q0 -254 21 -357q-21 -352 -21 -661v-55l-27 -6q-23 13 -42 13h-13 q-41 0 -69 -27q-48 0 -48 144q-35 246 -69 805l-14 7q-60 0 -165 -262q-40 -85 -83 -275q-75 -94 -75 -275q-10 -5 -28 -103q-65 -21 -75 -21q-35 324 -69 372q-30 172 -89 275q-54 215 -104 247h-27q-18 -316 -35 -316q-9 0 -20 -21v-27q0 -53 -55 -371q0 -6 -76 -193h-14 q-31 0 -89 34z" />
<glyph unicode="n" horiz-adv-x="1047" d="M12 1130l7 73q0 8 -7 22q7 39 7 65v8l-7 51q68 19 218 87h37q138 -29 145 -44q64 -305 131 -422q124 -270 255 -466v8q15 285 15 393q0 51 -8 487q91 -14 124 -14q65 7 80 7q21 -36 44 -36q-66 -228 -66 -459q0 -65 -36 -437v-116q0 -40 7 -102q-7 -18 -43 -211h-15 q-25 18 -109 51q-44 234 -117 327q-205 358 -378 590h-7q12 -85 21 -298q-11 -677 -72 -677l-8 -15q-56 29 -80 36l-43 -7h-8l-58 845l7 36q-7 24 -36 218z" />
<glyph unicode="o" horiz-adv-x="1131" d="M13 969q0 49 15 117l-15 36q76 101 146 212q78 53 365 102q313 -19 336 -58q79 0 204 -365q27 0 51 -256q-34 -83 -65 -248q0 -34 -102 -205q0 -36 -190 -189q-83 -103 -205 -103v-7q-29 22 -241 37q-89 52 -204 240q-33 42 -66 168q0 42 15 88q-29 95 -44 431zM283 633 q45 -263 95 -329q0 -90 139 -116q119 0 168 116q109 174 109 460q0 165 -124 387q-34 32 -109 44q-148 0 -212 -175q-35 0 -66 -387z" />
<glyph unicode="p" horiz-adv-x="969" d="M17 1338v14q100 35 259 70q79 -14 119 -14q70 0 351 28q116 0 147 -112q63 -163 63 -315v-28q0 -254 -91 -316q-136 -147 -148 -147h-14q-44 0 -105 7q-336 -36 -336 -84q-26 0 -56 -301q-35 -120 -56 -126q-6 0 -98 35l-21 287l14 561q-7 168 -7 378q0 32 -21 63z M297 637h7q364 83 364 169q34 0 49 196l-7 112q-128 49 -161 49q-13 0 -56 -14q-25 14 -56 14h-42q-91 -19 -91 -154v-7q0 -69 14 -203q-21 -128 -21 -162z" />
<glyph unicode="q" horiz-adv-x="1089" d="M15 552v8q0 304 44 534l-7 52q110 190 117 190q88 51 337 95h7q299 -17 330 -58q72 0 139 -235q7 -1 73 -168l-7 -44l22 -205q-22 -54 -59 -286q-67 -114 -117 -154q51 -67 51 -124q41 0 59 -125q88 -146 161 -146h22q37 0 95 87q11 0 66 44h8q51 -26 51 -102 q-13 -3 -95 -125q-104 -51 -169 -51h-95q-85 0 -176 161q-86 170 -124 205q-78 -88 -227 -88l-220 30q-33 0 -81 58q-61 0 -161 249q0 89 -44 198zM279 669q14 -154 51 -278h15q73 132 146 132q0 15 30 15q132 -37 205 -103q88 170 88 271v51q0 98 -103 345q-61 88 -161 88 q-115 0 -139 -59q-42 -72 -74 -256q-58 -93 -58 -206zM367 274q34 -139 139 -139q124 36 124 95q30 29 30 73q-87 88 -125 88h-22q-77 0 -146 -117z" />
<glyph unicode="r" horiz-adv-x="1238" d="M11 1195q63 196 73 197h36q27 0 182 29h8q230 -22 255 -22q91 0 160 37q262 -12 262 -51q58 -365 58 -466q-81 -133 -204 -263q-96 -58 -109 -109q44 -132 73 -328q0 -53 95 -58h58q112 0 204 153h7q39 0 51 -29v-7q-153 -241 -189 -241q-136 -21 -233 -21 q-88 0 -212 400q-57 58 -138 58h-66q-51 0 -51 -80q-28 0 -65 -262q-19 -41 -37 -124l-14 -7h-36q-46 21 -73 269v30l7 43q-22 105 -22 292v7q0 38 7 124q-39 0 -58 80l22 109zM390 984q29 -162 29 -226v-72h124q218 47 218 218q15 122 51 211q-108 80 -167 80l-117 -7 q-39 7 -65 7q-65 -115 -73 -211z" />
<glyph unicode="s" horiz-adv-x="933" d="M-1 931q14 85 14 108q0 44 -14 152q33 110 130 173q139 65 483 65q0 7 73 7q88 0 137 -94q86 -54 86 -108q-62 -113 -86 -181q-24 -14 -44 -14q-33 188 -72 188q-75 57 -216 57q-145 -64 -145 -158v-73q0 -98 354 -259q188 -90 188 -202v-138q0 -28 -44 -194 q-96 -222 -490 -253q-325 79 -325 296q14 115 58 115q57 0 57 -43q0 -160 282 -195q166 0 166 181v79q-49 122 -181 195q-42 0 -353 180q-53 53 -58 116z" />
<glyph unicode="t" horiz-adv-x="990" d="M0 1326v58l7 37h45q199 0 412 -14l397 29v-7l15 7h103v-81q0 -66 -15 -125l-155 15q-110 -15 -184 -15h-44v-59l-29 -338v-206q-15 -550 -15 -611v-15q0 -11 -22 -22q-49 47 -118 59q-13 -7 -29 -7q-13 99 -30 404q8 64 8 111q0 14 -15 88q0 35 7 169q-14 319 -14 412 q-81 15 -250 15h-15q-29 -22 -44 -22q-15 32 -15 118z" />
<glyph unicode="u" horiz-adv-x="1110" d="M15 552l22 111q-15 92 -15 148q0 32 23 119q0 40 -8 140q8 168 8 252q-8 66 -8 81l37 23l45 -8l37 8q122 -30 148 -30q19 0 74 15q15 -34 15 -67q-37 -201 -37 -252q0 -42 7 -118q-37 -88 -37 -178q0 -548 96 -548q25 -14 104 -29q120 0 215 177q0 43 66 200 q-7 105 -7 178v30q0 121 37 385h7q-15 80 -15 170q0 74 141 74h104q22 0 22 -118q-37 -411 -74 -526q-13 -54 -22 -193l15 -311l-15 -177l-67 -15q-89 45 -89 74q-31 0 -200 -141q-66 -22 -88 -22h-15q-35 0 -200 44q-63 -7 -104 -7q-200 82 -200 378z" />
<glyph unicode="v" horiz-adv-x="1082" d="M0 1437q122 -30 199 -30h29q62 8 103 8q52 -548 118 -899q32 -234 67 -265h14q13 0 45 199q14 0 14 15v36q0 34 103 383q30 369 67 369q11 29 22 29l-8 30q12 99 30 103l-8 15v7q273 -7 273 -30q-29 -58 -44 -279q-44 -97 -66 -266q-37 -73 -192 -545 q-129 -277 -133 -302q-86 -7 -125 -7h-37q-97 0 -125 96q-70 163 -118 375q-51 107 -51 162l7 67q-144 302 -169 641z" />
<glyph unicode="w" horiz-adv-x="1315" d="M8 1368q0 24 165 45q55 -55 83 -346q60 -333 83 -623h7q158 346 248 729q15 101 15 127h8q53 0 82 15l75 -293q91 -296 196 -556h7q19 0 30 226q45 325 60 593q11 0 30 151q175 -35 218 -61q0 -69 -52 -390q0 -89 -53 -323q-12 0 -37 -624q-61 -3 -61 -15q-33 15 -97 15 h-8l-90 -7l-128 405l-105 233h-15q-38 -34 -135 -293q-34 -48 -98 -360q-14 -8 -22 -8q-241 32 -241 75q-15 60 -15 98q0 37 15 37q-75 466 -150 864q-15 134 -15 286z" />
<glyph unicode="x" horiz-adv-x="1124" d="M5 1417q73 -8 110 -8h36q22 0 88 22q28 -20 81 -139q18 -19 117 -241q27 -42 80 -169h8l197 330q131 130 154 205h66q164 -8 168 -37v-15q0 -95 -117 -270q-69 -40 -132 -169q-124 -101 -183 -234q54 -173 176 -329q12 -58 132 -212q51 -95 51 -117q-15 0 -59 -37 q-66 0 -249 322q-55 43 -190 227q-150 -186 -358 -498q-35 -44 -88 -44q-22 27 -22 52q113 223 168 351q22 0 95 175l81 132q-63 129 -286 388l-109 205q0 48 -15 110z" />
<glyph unicode="y" horiz-adv-x="990" d="M0 1322v62l35 -7q33 0 200 42q35 -32 35 -48q-14 -70 -14 -90q42 -180 173 -485q35 -35 42 -35h20q95 94 125 229q14 113 49 187q0 7 -7 7q0 63 62 221q3 28 21 28h7q40 0 110 7q118 -62 118 -69v-97q-80 -63 -104 -166l-242 -457q-61 -76 -69 -76q12 -63 20 -63 q-27 -138 -27 -263v-124q0 -90 -28 -90q-58 0 -90 -35q-40 0 -76 305q7 14 14 76q-14 117 -14 200q-105 110 -166 305q-83 119 -83 145q7 12 7 28q-118 105 -118 263z" />
<glyph unicode="z" horiz-adv-x="912" d="M0 1247q22 36 22 58v73q293 7 465 36q128 0 276 29q14 -7 22 -7l14 7q72 -15 109 -58v-22q0 -26 -7 -65q7 -13 7 -29q-29 -56 -36 -117q-94 -107 -94 -138v-29q-36 0 -80 -131q-170 -156 -218 -269q-137 -170 -291 -436v-7q392 51 458 51q89 36 189 36q48 0 58 -101 q-19 -102 -44 -102h-14q-7 0 -7 7q-26 -14 -139 -22q-41 22 -87 22q-129 -14 -218 -14q-15 0 -102 14q-128 -14 -159 -29q-102 32 -102 65l7 37v7l-7 51q179 268 479 821q57 53 124 233q-189 -22 -218 -29v7l-15 -7h-72q-7 0 -7 7q-41 -22 -59 -22l-29 7q-13 0 -94 -21 q-22 0 -51 14q-36 -22 -51 -22q-29 45 -29 95z" />
<glyph unicode="{" />
<glyph unicode="|" />
<glyph unicode="}" />
<glyph unicode="~" horiz-adv-x="714" d="M0 644q0 37 106 88q39 34 88 36h6q100 0 124 -36q118 -120 188 -123q80 0 164 82h6q0 -17 18 -147q-63 -88 -141 -88h-65q-47 11 -235 159l-30 6h-23q-68 0 -112 -53q-15 0 -70 -71h-6v6z" />
<glyph unicode="&#xa1;" horiz-adv-x="545" d="M7 -205q0 100 70 304q45 0 94 282q-8 0 -8 8q38 20 79 203l-16 78q13 0 47 94q117 -2 117 -16q11 -54 24 -54l-8 -55v-47q0 -25 47 -156q-16 -76 -24 -180l39 -133l-8 -16q34 -141 63 -226q-16 -29 -16 -63v-31l8 -16q-57 -23 -141 -39q-12 0 -101 47h-188l-47 -31h-23 q0 35 -8 47zM148 1077l54 86q43 54 86 54l94 -7q15 7 24 7q109 -16 109 -125q0 -26 8 -39q0 -81 -133 -164q-211 19 -211 63q-31 80 -31 125z" />
<glyph unicode="&#xa2;" horiz-adv-x="1139" />
<glyph unicode="&#xa3;" />
<glyph unicode="&#xa4;" />
<glyph unicode="&#xa5;" horiz-adv-x="1262" />
<glyph unicode="&#xa6;" />
<glyph unicode="&#xa7;" />
<glyph unicode="&#xa8;" horiz-adv-x="1024" />
<glyph unicode="&#xa9;" horiz-adv-x="1674" />
<glyph unicode="&#xaa;" horiz-adv-x="648" />
<glyph unicode="&#xab;" horiz-adv-x="944" />
<glyph unicode="&#xac;" />
<glyph unicode="&#xad;" horiz-adv-x="670" />
<glyph unicode="&#xae;" horiz-adv-x="1674" />
<glyph unicode="&#xaf;" horiz-adv-x="670" />
<glyph unicode="&#xb0;" horiz-adv-x="674" />
<glyph unicode="&#xb1;" />
<glyph unicode="&#xb2;" />
<glyph unicode="&#xb3;" />
<glyph unicode="&#xb4;" horiz-adv-x="1024" d="M287 1149q12 14 21 19q11 7 22 12q50 46 180 148q-2 2 0 3q29 16 55 20q41 -54 44 -52q11 -30 21 -46l7 -11q-6 -10 -7 -10q-31 -12 -90 -42q-9 13 -199 -100q-31 -19 -53 16q-20 31 -1 43z" />
<glyph unicode="&#xb5;" horiz-adv-x="1180" />
<glyph unicode="&#xb6;" horiz-adv-x="1024" />
<glyph unicode="&#xb7;" horiz-adv-x="508" />
<glyph unicode="&#xb8;" horiz-adv-x="1024" />
<glyph unicode="&#xb9;" />
<glyph unicode="&#xba;" horiz-adv-x="718" />
<glyph unicode="&#xbb;" horiz-adv-x="944" />
<glyph unicode="&#xbc;" horiz-adv-x="1708" />
<glyph unicode="&#xbd;" horiz-adv-x="1964" />
<glyph unicode="&#xbe;" horiz-adv-x="1708" />
<glyph unicode="&#xbf;" horiz-adv-x="1082" d="M10 27v49q-3 295 201 387q353 81 352 102q25 30 24 58l-2 279l41 8l57 1q12 0 25 -25l2 -221q2 -181 -88 -182q-260 -125 -270 -141q-98 -76 -97 -174q23 -161 101 -261q86 -57 173 -56q140 1 253 125q49 54 47 222v74q-1 25 90 25h8q57 1 115 -48l-7 -98v-17l8 -16 q-18 0 -24 -74q17 -34 17 -49q-66 -67 -105 -165q-80 -67 -385 -127h-8q-468 25 -469 144q0 37 -59 180zM460 1163q-1 29 80 157v8q9 0 25 -8q70 17 82 17q180 2 182 -121v-9q0 -97 -122 -165h-41q-172 -2 -206 121z" />
<glyph unicode="&#xc0;" horiz-adv-x="1540" />
<glyph unicode="&#xc1;" horiz-adv-x="1018" d="M0 58v21q79 404 79 426q-7 62 -7 94q43 94 87 411q29 71 57 267q-14 61 -14 116l585 43h28q65 -412 65 -556q0 -17 -7 -108q29 -79 29 -108v-7q0 -8 -7 -8q32 0 50 -375q44 -167 44 -245h-8q-64 -15 -86 -15q0 15 -15 15q-23 -15 -43 -15q-115 0 -115 101q-13 86 -29 260 q-17 94 -51 94q-50 14 -86 14h-94q-50 0 -181 -21q-45 -455 -57 -455q-13 -7 -29 -7h-72q-123 0 -123 58zM296 613h267q40 0 108 15q-29 279 -86 527q-5 0 -22 43q-24 -15 -36 -15q0 18 -29 22q-7 0 -7 -7l-36 7h-15q-72 0 -72 -22q-36 -173 -50 -418q-8 0 -22 -152z M384 1559q12 14 21 19q11 7 22 12q50 46 180 148q-2 2 0 3q29 16 55 20q41 -54 44 -52q11 -30 21 -46l7 -11q-6 -10 -7 -10q-31 -12 -90 -42q-9 13 -199 -100q-31 -19 -53 16q-20 31 -1 43z" />
<glyph unicode="&#xc2;" horiz-adv-x="1540" />
<glyph unicode="&#xc3;" horiz-adv-x="1540" />
<glyph unicode="&#xc4;" horiz-adv-x="1540" />
<glyph unicode="&#xc5;" horiz-adv-x="1540" />
<glyph unicode="&#xc6;" horiz-adv-x="2118" />
<glyph unicode="&#xc7;" horiz-adv-x="1399" />
<glyph unicode="&#xc8;" horiz-adv-x="1151" />
<glyph unicode="&#xc9;" horiz-adv-x="1054" d="M0 1319q17 117 37 117h161q44 0 300 -44h15l322 22q42 0 191 -37q-33 -79 -59 -175l-37 7h-139q-115 -51 -183 -51q-110 -6 -110 -15q-29 -127 -36 -205q0 -78 95 -169q87 15 242 15h131l-14 -73q7 -15 7 -22q-34 -22 -110 -37q-88 7 -132 7l-36 -7v7l-15 -7h-66 q-154 -106 -154 -286v-51q0 -108 66 -139q0 -11 22 -22h22q306 0 418 36l102 -21q-37 -45 -73 -103q-183 0 -645 -66q-23 2 -73 81q-95 0 -95 175q7 178 15 213q0 112 -52 256q73 76 73 191q-21 260 -139 278q-42 0 -51 125zM410 1559q12 14 21 19q11 7 22 12q50 46 180 148 q-2 2 0 3q29 16 55 20q41 -54 44 -52q11 -30 21 -46l7 -11q-6 -10 -7 -10q-31 -12 -90 -42q-9 13 -199 -100q-31 -19 -53 16q-20 31 -1 43z" />
<glyph unicode="&#xca;" horiz-adv-x="1151" />
<glyph unicode="&#xcb;" horiz-adv-x="1151" />
<glyph unicode="&#xcc;" horiz-adv-x="657" />
<glyph unicode="&#xcd;" horiz-adv-x="424" d="M0 1182q7 126 36 218q189 20 189 36q86 -29 138 -29h36q14 -39 14 -44q-20 -124 -36 -377q-43 0 -65 -848q0 -138 -116 -138q-102 0 -102 87q-14 68 -14 109q0 46 7 94q-36 256 -80 885q-7 0 -7 7zM96 1559q12 14 21 19q11 7 22 12q50 46 180 148q-2 2 0 3q29 16 55 20 q41 -54 44 -52q11 -30 21 -46l7 -11q-6 -10 -7 -10q-31 -12 -90 -42q-9 13 -199 -100q-31 -19 -53 16q-20 31 -1 43z" />
<glyph unicode="&#xce;" horiz-adv-x="657" />
<glyph unicode="&#xcf;" horiz-adv-x="657" />
<glyph unicode="&#xd0;" horiz-adv-x="1518" />
<glyph unicode="&#xd1;" horiz-adv-x="1554" />
<glyph unicode="&#xd2;" horiz-adv-x="1614" />
<glyph unicode="&#xd3;" horiz-adv-x="1131" d="M13 969q0 49 15 117l-15 36q76 101 146 212q78 53 365 102q313 -19 336 -58q79 0 204 -365q27 0 51 -256q-34 -83 -65 -248q0 -34 -102 -205q0 -36 -190 -189q-83 -103 -205 -103v-7q-29 22 -241 37q-89 52 -204 240q-33 42 -66 168q0 42 15 88q-29 95 -44 431zM283 633 q45 -263 95 -329q0 -90 139 -116q119 0 168 116q109 174 109 460q0 165 -124 387q-34 32 -109 44q-148 0 -212 -175q-35 0 -66 -387zM454 1559q12 14 21 19q11 7 22 12q50 46 180 148q-2 2 0 3q29 16 55 20q41 -54 44 -52q11 -30 21 -46l7 -11q-6 -10 -7 -10 q-31 -12 -90 -42q-9 13 -199 -100q-31 -19 -53 16q-20 31 -1 43z" />
<glyph unicode="&#xd4;" horiz-adv-x="1614" />
<glyph unicode="&#xd5;" horiz-adv-x="1614" />
<glyph unicode="&#xd6;" horiz-adv-x="1614" />
<glyph unicode="&#xd7;" />
<glyph unicode="&#xd8;" horiz-adv-x="1614" />
<glyph unicode="&#xd9;" horiz-adv-x="1501" />
<glyph unicode="&#xda;" horiz-adv-x="1110" d="M15 552l22 111q-15 92 -15 148q0 32 23 119q0 40 -8 140q8 168 8 252q-8 66 -8 81l37 23l45 -8l37 8q122 -30 148 -30q19 0 74 15q15 -34 15 -67q-37 -201 -37 -252q0 -42 7 -118q-37 -88 -37 -178q0 -548 96 -548q25 -14 104 -29q120 0 215 177q0 43 66 200 q-7 105 -7 178v30q0 121 37 385h7q-15 80 -15 170q0 74 141 74h104q22 0 22 -118q-37 -411 -74 -526q-13 -54 -22 -193l15 -311l-15 -177l-67 -15q-89 45 -89 74q-31 0 -200 -141q-66 -22 -88 -22h-15q-35 0 -200 44q-63 -7 -104 -7q-200 82 -200 378zM445 1559q12 14 21 19 q11 7 22 12q50 46 180 148q-2 2 0 3q29 16 55 20q41 -54 44 -52q11 -30 21 -46l7 -11q-6 -10 -7 -10q-31 -12 -90 -42q-9 13 -199 -100q-31 -19 -53 16q-20 31 -1 43z" />
<glyph unicode="&#xdb;" horiz-adv-x="1501" />
<glyph unicode="&#xdc;" horiz-adv-x="1501" />
<glyph unicode="&#xdd;" horiz-adv-x="990" d="M0 1322v62l35 -7q33 0 200 42q35 -32 35 -48q-14 -70 -14 -90q42 -180 173 -485q35 -35 42 -35h20q95 94 125 229q14 113 49 187q0 7 -7 7q0 63 62 221q3 28 21 28h7q40 0 110 7q118 -62 118 -69v-97q-80 -63 -104 -166l-242 -457q-61 -76 -69 -76q12 -63 20 -63 q-27 -138 -27 -263v-124q0 -90 -28 -90q-58 0 -90 -35q-40 0 -76 305q7 14 14 76q-14 117 -14 200q-105 110 -166 305q-83 119 -83 145q7 12 7 28q-118 105 -118 263zM378 1559q12 14 21 19q11 7 22 12q50 46 180 148q-2 2 0 3q29 16 55 20q41 -54 44 -52q11 -30 21 -46 l7 -11q-6 -10 -7 -10q-31 -12 -90 -42q-9 13 -199 -100q-31 -19 -53 16q-20 31 -1 43z" />
<glyph unicode="&#xde;" horiz-adv-x="1120" />
<glyph unicode="&#xdf;" horiz-adv-x="1251" />
<glyph unicode="&#xe0;" horiz-adv-x="922" />
<glyph unicode="&#xe1;" horiz-adv-x="1018" d="M0 58v21q79 404 79 426q-7 62 -7 94q43 94 87 411q29 71 57 267q-14 61 -14 116l585 43h28q65 -412 65 -556q0 -17 -7 -108q29 -79 29 -108v-7q0 -8 -7 -8q32 0 50 -375q44 -167 44 -245h-8q-64 -15 -86 -15q0 15 -15 15q-23 -15 -43 -15q-115 0 -115 101q-13 86 -29 260 q-17 94 -51 94q-50 14 -86 14h-94q-50 0 -181 -21q-45 -455 -57 -455q-13 -7 -29 -7h-72q-123 0 -123 58zM296 613h267q40 0 108 15q-29 279 -86 527q-5 0 -22 43q-24 -15 -36 -15q0 18 -29 22q-7 0 -7 -7l-36 7h-15q-72 0 -72 -22q-36 -173 -50 -418q-8 0 -22 -152z M377 1538q12 14 21 19q11 7 22 12q50 46 180 148q-2 2 0 3q29 16 55 20q41 -54 44 -52q11 -30 21 -46l7 -11q-6 -10 -7 -10q-31 -12 -90 -42q-9 13 -199 -100q-31 -19 -53 16q-20 31 -1 43z" />
<glyph unicode="&#xe2;" horiz-adv-x="922" />
<glyph unicode="&#xe3;" horiz-adv-x="922" />
<glyph unicode="&#xe4;" horiz-adv-x="922" />
<glyph unicode="&#xe5;" horiz-adv-x="922" />
<glyph unicode="&#xe6;" horiz-adv-x="1454" />
<glyph unicode="&#xe7;" horiz-adv-x="905" />
<glyph unicode="&#xe8;" horiz-adv-x="909" />
<glyph unicode="&#xe9;" horiz-adv-x="1054" d="M0 1319q17 117 37 117h161q44 0 300 -44h15l322 22q42 0 191 -37q-33 -79 -59 -175l-37 7h-139q-115 -51 -183 -51q-110 -6 -110 -15q-29 -127 -36 -205q0 -78 95 -169q87 15 242 15h131l-14 -73q7 -15 7 -22q-34 -22 -110 -37q-88 7 -132 7l-36 -7v7l-15 -7h-66 q-154 -106 -154 -286v-51q0 -108 66 -139q0 -11 22 -22h22q306 0 418 36l102 -21q-37 -45 -73 -103q-183 0 -645 -66q-23 2 -73 81q-95 0 -95 175q7 178 15 213q0 112 -52 256q73 76 73 191q-21 260 -139 278q-42 0 -51 125zM410 1516q12 14 21 19q11 7 22 12q50 46 180 148 q-2 2 0 3q29 16 55 20q41 -54 44 -52q11 -30 21 -46l7 -11q-6 -10 -7 -10q-31 -12 -90 -42q-9 13 -199 -100q-31 -19 -53 16q-20 31 -1 43z" />
<glyph unicode="&#xea;" horiz-adv-x="909" />
<glyph unicode="&#xeb;" horiz-adv-x="909" />
<glyph unicode="&#xec;" horiz-adv-x="514" />
<glyph unicode="&#xed;" horiz-adv-x="514" d="M-110 1149q12 14 21 19q11 7 22 12q50 46 180 148q-2 2 0 3q29 16 55 20q41 -54 44 -52q11 -30 21 -46l7 -11q-6 -10 -7 -10q-31 -12 -90 -42q-9 13 -199 -100q-31 -19 -53 16q-20 31 -1 43z" />
<glyph unicode="&#xee;" horiz-adv-x="514" />
<glyph unicode="&#xef;" horiz-adv-x="514" />
<glyph unicode="&#xf0;" horiz-adv-x="1139" />
<glyph unicode="&#xf1;" horiz-adv-x="1108" />
<glyph unicode="&#xf2;" horiz-adv-x="1010" />
<glyph unicode="&#xf3;" horiz-adv-x="1131" d="M20 955q0 49 15 117l-15 36q76 101 146 212q78 53 365 102q313 -19 336 -58q79 0 204 -365q27 0 51 -256q-34 -83 -65 -248q0 -34 -102 -205q0 -36 -190 -189q-83 -103 -205 -103v-7q-29 22 -241 37q-89 52 -204 240q-33 42 -66 168q0 42 15 88q-29 95 -44 431zM290 619 q45 -263 95 -329q0 -90 139 -116q119 0 168 116q109 174 109 460q0 165 -124 387q-34 32 -109 44q-148 0 -212 -175q-35 0 -66 -387zM410 1530q12 14 21 19q11 7 22 12q50 46 180 148q-2 2 0 3q29 16 55 20q41 -54 44 -52q11 -30 21 -46l7 -11q-6 -10 -7 -10 q-31 -12 -90 -42q-9 13 -199 -100q-31 -19 -53 16q-20 31 -1 43z" />
<glyph unicode="&#xf4;" horiz-adv-x="1010" />
<glyph unicode="&#xf5;" horiz-adv-x="1010" />
<glyph unicode="&#xf6;" horiz-adv-x="1010" />
<glyph unicode="&#xf7;" />
<glyph unicode="&#xf8;" horiz-adv-x="1010" />
<glyph unicode="&#xf9;" horiz-adv-x="1059" />
<glyph unicode="&#xfa;" horiz-adv-x="1110" d="M15 552l22 111q-15 92 -15 148q0 32 23 119q0 40 -8 140q8 168 8 252q-8 66 -8 81l37 23l45 -8l37 8q122 -30 148 -30q19 0 74 15q15 -34 15 -67q-37 -201 -37 -252q0 -42 7 -118q-37 -88 -37 -178q0 -548 96 -548q25 -14 104 -29q120 0 215 177q0 43 66 200 q-7 105 -7 178v30q0 121 37 385h7q-15 80 -15 170q0 74 141 74h104q22 0 22 -118q-37 -411 -74 -526q-13 -54 -22 -193l15 -311l-15 -177l-67 -15q-89 45 -89 74q-31 0 -200 -141q-66 -22 -88 -22h-15q-35 0 -200 44q-63 -7 -104 -7q-200 82 -200 378zM445 1531q12 14 21 19 q11 7 22 12q50 46 180 148q-2 2 0 3q29 16 55 20q41 -54 44 -52q11 -30 21 -46l7 -11q-6 -10 -7 -10q-31 -12 -90 -42q-9 13 -199 -100q-31 -19 -53 16q-20 31 -1 43z" />
<glyph unicode="&#xfb;" horiz-adv-x="1059" />
<glyph unicode="&#xfc;" horiz-adv-x="1059" />
<glyph unicode="&#xfd;" horiz-adv-x="990" d="M0 1322v62l35 -7q33 0 200 42q35 -32 35 -48q-14 -70 -14 -90q42 -180 173 -485q35 -35 42 -35h20q95 94 125 229q14 113 49 187q0 7 -7 7q0 63 62 221q3 28 21 28h7q40 0 110 7q118 -62 118 -69v-97q-80 -63 -104 -166l-242 -457q-61 -76 -69 -76q12 -63 20 -63 q-27 -138 -27 -263v-124q0 -90 -28 -90q-58 0 -90 -35q-40 0 -76 305q7 14 14 76q-14 117 -14 200q-105 110 -166 305q-83 119 -83 145q7 12 7 28q-118 105 -118 263zM385 1524q12 14 21 19q11 7 22 12q50 46 180 148q-2 2 0 3q29 16 55 20q41 -54 44 -52q11 -30 21 -46 l7 -11q-6 -10 -7 -10q-31 -12 -90 -42q-9 13 -199 -100q-31 -19 -53 16q-20 31 -1 43z" />
<glyph unicode="&#xfe;" horiz-adv-x="1010" />
<glyph unicode="&#xff;" horiz-adv-x="868" />
<glyph unicode="&#x2c6;" horiz-adv-x="1024" />
<glyph unicode="&#x2dc;" horiz-adv-x="1024" />
<glyph unicode="&#x2000;" horiz-adv-x="880" />
<glyph unicode="&#x2001;" horiz-adv-x="1761" />
<glyph unicode="&#x2002;" horiz-adv-x="880" />
<glyph unicode="&#x2003;" horiz-adv-x="1761" />
<glyph unicode="&#x2004;" horiz-adv-x="587" />
<glyph unicode="&#x2005;" horiz-adv-x="440" />
<glyph unicode="&#x2006;" horiz-adv-x="293" />
<glyph unicode="&#x2007;" horiz-adv-x="293" />
<glyph unicode="&#x2008;" horiz-adv-x="220" />
<glyph unicode="&#x2009;" horiz-adv-x="352" />
<glyph unicode="&#x200a;" horiz-adv-x="97" />
<glyph unicode="&#x2010;" horiz-adv-x="670" />
<glyph unicode="&#x2011;" horiz-adv-x="670" />
<glyph unicode="&#x2012;" horiz-adv-x="670" />
<glyph unicode="&#x2013;" horiz-adv-x="1108" />
<glyph unicode="&#x2014;" horiz-adv-x="2048" />
<glyph unicode="&#x2018;" horiz-adv-x="557" />
<glyph unicode="&#x2019;" horiz-adv-x="557" />
<glyph unicode="&#x201a;" horiz-adv-x="557" />
<glyph unicode="&#x201c;" horiz-adv-x="910" />
<glyph unicode="&#x201d;" horiz-adv-x="910" />
<glyph unicode="&#x201e;" horiz-adv-x="910" />
<glyph unicode="&#x2022;" horiz-adv-x="1024" />
<glyph unicode="&#x2026;" horiz-adv-x="2048" />
<glyph unicode="&#x202f;" horiz-adv-x="352" />
<glyph unicode="&#x2039;" horiz-adv-x="631" />
<glyph unicode="&#x203a;" horiz-adv-x="631" />
<glyph unicode="&#x205f;" horiz-adv-x="440" />
<glyph unicode="&#x20ac;" />
<glyph unicode="&#x2122;" horiz-adv-x="1497" />
<glyph unicode="&#xe000;" horiz-adv-x="1430" d="M0 0v1430h1430v-1430h-1430z" />
</font>
</defs>
</svg>
